<mxfile host="app.diagrams.net" modified="2023-11-01T17:17:51.035Z" agent="Mozilla/5.0 (Windows NT 10.0; Win64; x64; rv:109.0) Gecko/20100101 Firefox/119.0" etag="yGgmKQodTRYvO6ErsHNG" version="22.0.8" type="device">
  <diagram name="Page-1" id="2Z3E801_i5Xw630dcZVX">
    <mxGraphModel dx="1194" dy="786" grid="1" gridSize="10" guides="1" tooltips="1" connect="1" arrows="1" fold="1" page="1" pageScale="1" pageWidth="827" pageHeight="1169" math="0" shadow="0">
      <root>
        <mxCell id="0" />
        <mxCell id="1" parent="0" />
        <mxCell id="Wju7yyeP7G5hJuqjyVXu-1" value="Usuario registrado" style="shape=umlActor;verticalLabelPosition=bottom;verticalAlign=top;html=1;outlineConnect=0;" vertex="1" parent="1">
          <mxGeometry x="20" y="120" width="120" height="250" as="geometry" />
        </mxCell>
        <mxCell id="Wju7yyeP7G5hJuqjyVXu-3" value="Usuario registrado" style="shape=umlActor;verticalLabelPosition=bottom;verticalAlign=top;html=1;outlineConnect=0;" vertex="1" parent="1">
          <mxGeometry x="690" y="120" width="120" height="250" as="geometry" />
        </mxCell>
        <mxCell id="Wju7yyeP7G5hJuqjyVXu-4" value="" style="rounded=0;whiteSpace=wrap;html=1;" vertex="1" parent="1">
          <mxGeometry x="228.5" y="30" width="370" height="530" as="geometry" />
        </mxCell>
        <mxCell id="Wju7yyeP7G5hJuqjyVXu-5" value="Sistema" style="text;html=1;strokeColor=none;fillColor=none;align=center;verticalAlign=middle;whiteSpace=wrap;rounded=0;" vertex="1" parent="1">
          <mxGeometry x="384" y="50" width="60" height="30" as="geometry" />
        </mxCell>
        <mxCell id="Wju7yyeP7G5hJuqjyVXu-6" value="Jugar una partida en lÃ­nea" style="ellipse;whiteSpace=wrap;html=1;aspect=fixed;" vertex="1" parent="1">
          <mxGeometry x="331.5" y="162.5" width="165" height="165" as="geometry" />
        </mxCell>
        <mxCell id="Wju7yyeP7G5hJuqjyVXu-7" value="" style="endArrow=none;html=1;rounded=0;exitX=0.1;exitY=0.227;exitDx=0;exitDy=0;exitPerimeter=0;entryX=0.75;entryY=0.1;entryDx=0;entryDy=0;entryPerimeter=0;" edge="1" parent="1" source="Wju7yyeP7G5hJuqjyVXu-6" target="Wju7yyeP7G5hJuqjyVXu-1">
          <mxGeometry width="50" height="50" relative="1" as="geometry">
            <mxPoint x="400" y="330" as="sourcePoint" />
            <mxPoint x="450" y="280" as="targetPoint" />
          </mxGeometry>
        </mxCell>
        <mxCell id="Wju7yyeP7G5hJuqjyVXu-8" value="" style="endArrow=none;html=1;rounded=0;exitX=0.25;exitY=0.1;exitDx=0;exitDy=0;exitPerimeter=0;entryX=0.973;entryY=0.27;entryDx=0;entryDy=0;entryPerimeter=0;" edge="1" parent="1" source="Wju7yyeP7G5hJuqjyVXu-3" target="Wju7yyeP7G5hJuqjyVXu-6">
          <mxGeometry width="50" height="50" relative="1" as="geometry">
            <mxPoint x="400" y="330" as="sourcePoint" />
            <mxPoint x="480" y="210" as="targetPoint" />
          </mxGeometry>
        </mxCell>
      </root>
    </mxGraphModel>
  </diagram>
</mxfile>
